<!DOCTYPE svg PUBLIC "-//W3C//DTD SVG 1.1//EN" "http://www.w3.org/Graphics/SVG/1.1/DTD/svg11.dtd">
<!-- Uploaded to: SVG Repo, www.svgrepo.com, Transformed by: SVG Repo Mixer Tools -->
<svg fill="#5a3d85" height="800px" width="800px" version="1.1" id="Capa_1" xmlns="http://www.w3.org/2000/svg" xmlns:xlink="http://www.w3.org/1999/xlink" viewBox="0 0 31.683 31.683" xml:space="preserve" stroke="#5a3d85">
<g id="SVGRepo_bgCarrier" stroke-width="0"/>
<g id="SVGRepo_tracerCarrier" stroke-linecap="round" stroke-linejoin="round"/>
<g id="SVGRepo_iconCarrier"> <g> <path d="M22.21,7.51V2.308C22.21,1.033,21.178,0,19.903,0H6.572C5.297,0,4.268,1.033,4.268,2.308v27.069 c0,1.273,1.029,2.306,2.304,2.306h13.331c1.275,0,2.307-1.032,2.307-2.306v-7.114c3.031-1.083,5.205-3.973,5.205-7.376 C27.415,11.482,25.241,8.594,22.21,7.51z M18.383,1.444c0.326,0,0.591,0.264,0.591,0.59s-0.265,0.59-0.591,0.59 c-0.326,0-0.59-0.264-0.59-0.59S18.058,1.444,18.383,1.444z M10.148,1.669h6.181v0.675h-6.181V1.669z M16.053,29.222h-5.629v-1.731 h5.629V29.222z M20.482,25.672H5.997V3.893h14.486v3.21c-0.299-0.036-0.601-0.057-0.909-0.057c-4.33,0-7.841,3.509-7.841,7.841 c0,4.331,3.511,7.841,7.841,7.841c0.308,0,0.61-0.022,0.909-0.057L20.482,25.672L20.482,25.672z M22.21,20.697 c-0.54,0.245-1.121,0.417-1.728,0.502c-0.298,0.043-0.6,0.073-0.909,0.073c-3.527,0-6.386-2.859-6.386-6.386 c0-3.528,2.859-6.385,6.386-6.385c0.309,0,0.611,0.028,0.909,0.071c0.607,0.087,1.188,0.257,1.728,0.503 c2.209,1.005,3.748,3.225,3.748,5.811C25.958,17.471,24.419,19.692,22.21,20.697z"/> <polygon points="20.925,10.788 18.346,10.788 18.346,13.726 15.345,13.726 15.345,16.305 18.346,16.305 18.346,19.332 20.925,19.332 20.925,16.305 23.889,16.305 23.889,13.726 20.925,13.726 "/> <g> </g> <g> </g> <g> </g> <g> </g> <g> </g> <g> </g> <g> </g> <g> </g> <g> </g> <g> </g> <g> </g> <g> </g> <g> </g> <g> </g> <g> </g> </g> </g>
</svg>